<?xml version="1.0" encoding="UTF-8"?>
<svg width="194px" height="43px" viewBox="0 0 194 43" version="1.1" xmlns="http://www.w3.org/2000/svg" xmlns:xlink="http://www.w3.org/1999/xlink">
    <!-- Generator: Sketch 46.2 (44496) - http://www.bohemiancoding.com/sketch -->
    <title>openspace</title>
    <desc>Created with Sketch.</desc>
    <defs></defs>
    <g id="mocks" stroke="none" stroke-width="1" fill="none" fill-rule="evenodd">
        <g id="Desktop-Copy" transform="translate(-64.000000, -47.000000)" fill-rule="nonzero" fill="#2B67DB">
            <g id="openspace" transform="translate(64.000000, 47.000000)">
                <g id="Group" transform="translate(47.000000, 12.000000)">
                    <path d="M9.1875,0.437837838 C11.7503289,0.437837838 13.8779605,1.36216216 15.61875,3.21081081 C17.1177632,4.81621622 17.8430921,6.81081081 17.8430921,9.19459459 C17.8430921,10.6540541 17.45625,12.1135135 16.6825658,13.4756757 C15.8605263,14.9837838 14.7,16.1027027 13.2009868,16.9297297 C11.94375,17.6108108 10.5898026,17.9513514 9.09078947,17.9513514 C7.49506579,17.9513514 6.04440789,17.5621622 4.69046053,16.8324324 C3.14309211,16.0054054 1.98256579,14.8378378 1.16052632,13.3297297 C0.483552632,12.0648649 0.145065789,10.7027027 0.145065789,9.24324324 C0.145065789,6.71351351 1.06381579,4.57297297 2.94967105,2.77297297 C4.59375,1.21621622 6.67302632,0.437837838 9.1875,0.437837838 Z M9.04243421,4.23243243 C7.59177632,4.23243243 6.43125,4.76756757 5.46414474,5.83783784 C4.69046053,6.76216216 4.25526316,7.88108108 4.25526316,9.19459459 C4.25526316,10.6540541 4.73881579,11.8216216 5.70592105,12.7459459 C6.62467105,13.6702703 7.73684211,14.1081081 8.99407895,14.1081081 C10.3963816,14.1081081 11.5085526,13.572973 12.4756579,12.5513514 C13.2976974,11.627027 13.7328947,10.5567568 13.7328947,9.24324324 C13.7328947,7.68648649 13.2009868,6.37297297 12.1855263,5.44864865 C11.2667763,4.62162162 10.2513158,4.23243243 9.04243421,4.23243243 Z" id="Shape"></path>
                    <path d="M25.5315789,12.1135135 L25.5315789,17.5621622 L21.4697368,17.5621622 L21.4697368,0.778378378 L27.2240132,0.778378378 C29.2549342,0.778378378 30.8023026,1.26486486 31.8661184,2.28648649 C32.8815789,3.21081081 33.4134868,4.57297297 33.4134868,6.32432432 C33.4134868,7.34594595 33.1717105,8.31891892 32.7365132,9.24324324 C32.2046053,10.3135135 31.3825658,11.0918919 30.31875,11.5783784 C29.4483553,11.9675676 28.48125,12.1621622 27.3690789,12.1621622 L25.5315789,12.1621622 L25.5315789,12.1135135 Z M25.5315789,8.75675676 L26.64375,8.75675676 C27.2240132,8.75675676 27.7075658,8.65945946 28.0944079,8.46486486 C28.9164474,8.07567568 29.3032895,7.39459459 29.3032895,6.42162162 C29.3032895,5.69189189 29.0615132,5.15675676 28.6263158,4.71891892 C28.1911184,4.28108108 27.6108553,4.08648649 26.8855263,4.08648649 L25.4832237,4.08648649 L25.4832237,8.75675676 L25.5315789,8.75675676 Z" id="Shape"></path>
                    <polygon id="Shape" points="41.2953947 4.08648649 41.2953947 7.54054054 46.8078947 7.54054054 46.8078947 10.8486486 41.2953947 10.8486486 41.2953947 14.3027027 46.8078947 14.3027027 46.8078947 17.6108108 37.2335526 17.6108108 37.2335526 0.778378378 46.8078947 0.778378378 46.8078947 4.08648649"></polygon>
                    <polygon id="Shape" points="56.04375 8.02702703 56.04375 17.6108108 51.9819079 17.6108108 51.9819079 0.778378378 56.04375 0.778378378 62.1365132 10.2162162 62.1365132 0.778378378 66.1983553 0.778378378 66.1983553 17.6108108 62.1365132 17.6108108"></polygon>
                    <path d="M70.9371711,12.5027027 L74.9023026,12.5027027 C74.9023026,12.6 74.9023026,12.6972973 74.9023026,12.7945946 C74.9023026,13.2324324 75.0957237,13.572973 75.4825658,13.8648649 C75.8694079,14.1567568 76.3529605,14.3027027 76.8848684,14.3027027 C77.3684211,14.3027027 77.8036184,14.1567568 78.09375,13.9135135 C78.4322368,13.6702703 78.5773026,13.3297297 78.5773026,12.9405405 C78.5773026,12.5513514 78.4322368,12.2108108 78.09375,12.0162162 C77.8036184,11.772973 77.1266447,11.4810811 76.1595395,11.1405405 C74.5638158,10.5567568 73.3549342,9.92432432 72.5328947,9.19459459 C71.5657895,8.36756757 71.0822368,7.2 71.0822368,5.69189189 C71.0822368,4.03783784 71.6141447,2.77297297 72.7263158,1.8 C73.7901316,0.875675676 75.1924342,0.437837838 76.8365132,0.437837838 C78.4322368,0.437837838 79.7861842,0.875675676 80.85,1.75135135 C81.9138158,2.62702703 82.5907895,3.98918919 82.8325658,5.74054054 L78.6740132,5.74054054 C78.5289474,4.62162162 77.9486842,4.03783784 76.8365132,4.03783784 C76.25625,4.03783784 75.8210526,4.18378378 75.5309211,4.52432432 C75.2891447,4.76756757 75.1924342,5.05945946 75.1924342,5.4 C75.1924342,5.88648649 75.4342105,6.32432432 75.9661184,6.61621622 C76.2078947,6.76216216 76.8365132,7.05405405 77.9003289,7.44324324 C79.5927632,8.07567568 80.8016447,8.70810811 81.4786184,9.34054054 C82.3973684,10.2162162 82.8809211,11.3351351 82.8809211,12.6972973 C82.8809211,14.5459459 82.1555921,15.9081081 80.7532895,16.8810811 C79.6894737,17.6108108 78.3838816,17.9513514 76.8848684,17.9513514 C75.1440789,17.9513514 73.7417763,17.5135135 72.6779605,16.5891892 C71.5174342,15.5675676 70.9371711,14.2054054 70.9371711,12.5027027 Z" id="Shape"></path>
                    <path d="M91.3430921,12.1135135 L91.3430921,17.5621622 L87.28125,17.5621622 L87.28125,0.778378378 L93.0355263,0.778378378 C95.0664474,0.778378378 96.6138158,1.26486486 97.6776316,2.28648649 C98.6930921,3.21081081 99.225,4.57297297 99.225,6.32432432 C99.225,7.34594595 98.9832237,8.31891892 98.5480263,9.24324324 C98.0161184,10.3135135 97.1940789,11.0918919 96.1302632,11.5783784 C95.2598684,11.9675676 94.2927632,12.1621622 93.1805921,12.1621622 L91.3430921,12.1621622 L91.3430921,12.1135135 Z M91.3430921,8.75675676 L92.4552632,8.75675676 C93.0355263,8.75675676 93.5190789,8.65945946 93.9059211,8.46486486 C94.7279605,8.07567568 95.1148026,7.39459459 95.1148026,6.42162162 C95.1148026,5.69189189 94.8730263,5.15675676 94.4378289,4.71891892 C94.0026316,4.28108108 93.4223684,4.08648649 92.6970395,4.08648649 L91.2947368,4.08648649 L91.2947368,8.75675676 L91.3430921,8.75675676 Z" id="Shape"></path>
                    <path d="M111.410526,15.1297297 L105.462829,15.1297297 L104.7375,17.5621622 L100.385526,17.5621622 L105.898026,0.72972973 L111.072039,0.72972973 L116.584539,17.5621622 L112.135855,17.5621622 L111.410526,15.1297297 Z M110.395066,11.8702703 L108.4125,5.59459459 L106.478289,11.8702703 L110.395066,11.8702703 Z" id="Shape"></path>
                    <path d="M130.849342,12.6972973 L133.267105,15.5675676 C132.396711,16.2972973 131.574671,16.8324324 130.800987,17.172973 C129.640461,17.7081081 128.383224,17.9513514 126.980921,17.9513514 C124.418092,17.9513514 122.387171,17.1243243 120.839803,15.4216216 C120.017763,14.4972973 119.389145,13.3783784 119.002303,12.1135135 C118.712171,11.1891892 118.567105,10.2648649 118.567105,9.29189189 C118.567105,7.63783784 118.953947,6.08108108 119.775987,4.62162162 C120.598026,3.16216216 121.710197,2.09189189 123.1125,1.36216216 C124.224671,0.827027027 125.578618,0.535135135 127.077632,0.535135135 C128.383224,0.535135135 129.495395,0.72972973 130.4625,1.11891892 C131.429605,1.50810811 132.396711,2.18918919 133.412171,3.11351351 L130.800987,5.83783784 C129.640461,4.81621622 128.431579,4.32972973 127.222697,4.32972973 C125.820395,4.32972973 124.708224,4.81621622 123.837829,5.78918919 C123.064145,6.71351351 122.677303,7.83243243 122.677303,9.24324324 C122.677303,10.2648649 122.919079,11.2378378 123.402632,12.0648649 C123.789474,12.7459459 124.369737,13.2810811 125.046711,13.6702703 C125.772039,14.0594595 126.545724,14.2540541 127.416118,14.2540541 C128.141447,14.2540541 128.770066,14.1567568 129.301974,13.9135135 C129.882237,13.572973 130.414145,13.1837838 130.849342,12.6972973 Z" id="Shape"></path>
                    <polygon id="Shape" points="141.100658 4.08648649 141.100658 7.54054054 146.613158 7.54054054 146.613158 10.8486486 141.100658 10.8486486 141.100658 14.3027027 146.613158 14.3027027 146.613158 17.6108108 137.038816 17.6108108 137.038816 0.778378378 146.613158 0.778378378 146.613158 4.08648649"></polygon>
                </g>
                <g id="Group">
                    <path d="M13.89375,11.8738636 L8.775,14.2193182 C8.58,14.3170455 8.4825,14.4636364 8.4825,14.6590909 L8.72625,27.1681818 C8.72625,27.3636364 8.82375,27.5102273 8.97,27.6079545 L13.845,30.1 C14.1375,30.2465909 14.5275,30.0511364 14.5275,29.6602273 L14.57625,12.3136364 C14.5275,11.9715909 14.18625,11.7761364 13.89375,11.8738636 Z" id="Shape"></path>
                    <path d="M36.90375,7.525 L20.81625,0.342045455 C19.93875,-0.0488636364 18.915,-0.0488636364 17.98875,0.342045455 L2.4375,7.525 C1.21875,8.0625 0.43875,9.28409091 0.43875,10.6522727 L0.43875,30.3931818 C0.43875,31.6636364 1.12125,32.7875 2.19375,33.3738636 L18.0375,42.1204545 C19.0125,42.6579545 20.1825,42.7068182 21.20625,42.1693182 L37.05,34.3022727 C38.22,33.7159091 38.95125,32.5431818 38.95125,31.2238636 L38.95125,10.6522727 C38.95125,9.33295455 38.17125,8.11136364 36.90375,7.525 Z M18.0375,16.6136364 L17.98875,35.3284091 C17.98875,35.6704545 17.59875,35.9147727 17.30625,35.7681818 L5.50875,29.7579545 C5.3625,29.6602273 5.265,29.5136364 5.265,29.3181818 L4.9725,12.4113636 C4.9725,12.2159091 5.07,12.0693182 5.265,11.9715909 L17.40375,6.49886364 C17.69625,6.35227273 18.08625,6.59659091 18.08625,6.93863636 L18.08625,16.6136364 L18.0375,16.6136364 Z" id="Shape"></path>
                </g>
            </g>
        </g>
    </g>
</svg>